<svg width="128" height="128" viewBox="0 0 128 128" xmlns="http://www.w3.org/2000/svg">
  <defs>
    <linearGradient id="bg" x1="18" y1="14" x2="112" y2="116" gradientUnits="userSpaceOnUse">
      <stop offset="0" stop-color="#0f766e"/>
      <stop offset="0.55" stop-color="#1d4ed8"/>
      <stop offset="1" stop-color="#111827"/>
    </linearGradient>
    <filter id="shadow" x="-20%" y="-20%" width="140%" height="150%" color-interpolation-filters="sRGB">
      <feDropShadow dx="0" dy="4" stdDeviation="3" flood-color="#020617" flood-opacity="0.28"/>
    </filter>
  </defs>

  <rect width="128" height="128" rx="28" fill="url(#bg)"/>
  <path d="M24 31c0-7.2 5.8-13 13-13h43c7.2 0 13 5.8 13 13v24c0 7.2-5.8 13-13 13H54L35.6 82.4c-2.6 2-6.3.2-6.3-3.1V67.4C26.2 65.1 24 61.5 24 57.4V31Z" fill="#5eead4" opacity="0.92"/>
  <path d="M34 45c0-7.7 6.3-14 14-14h45c7.7 0 14 6.3 14 14v34c0 7.7-6.3 14-14 14H66.8L45.2 109c-2.8 2.1-6.8.1-6.8-3.4V91.4C35.7 88.8 34 85.2 34 81.2V45Z" fill="#f8fafc" filter="url(#shadow)"/>
  <path d="M52 54l36 36M88 54 52 90" fill="none" stroke="#ef4444" stroke-width="10" stroke-linecap="round"/>
  <path d="M51 45h38" fill="none" stroke="#cbd5e1" stroke-width="5" stroke-linecap="round" opacity="0.9"/>
</svg>
